<svg xmlns="http://www.w3.org/2000/svg" width="18.601" height="17.145" viewBox="0 0 18.601 17.145">
  <path id="filter_1_" data-name="filter (1)" d="M18.547,10.006a.564.564,0,0,0-.51-.323H.563a.564.564,0,0,0-.435.922l6.717,8.147v7.512a.564.564,0,0,0,.814.505L11.434,24.9a.564.564,0,0,0,.313-.5l.007-5.642,6.717-8.147A.564.564,0,0,0,18.547,10.006Zm-7.791,8.185a.564.564,0,0,0-.129.358l-.007,5.5L7.973,25.356V18.55a.563.563,0,0,0-.129-.359L1.759,10.81H16.841Z" transform="translate(0 -9.683)" fill="#bdc3c1"/>
</svg>
